<svg xmlns="http://www.w3.org/2000/svg" fill="none" viewBox="0 0 16 16"><path fill="#64748b" d="M9.733 2.666c1.494 0 2.24 0 2.81.291.503.256.91.663 1.166 1.165.29.57.291 1.317.291 2.81v.8c0 1.494 0 2.24-.291 2.811-.256.502-.663.91-1.165 1.166-.57.29-1.317.29-2.81.29h-4.79a.67.67 0 0 0-.472.195l-1.334 1.334A.667.667 0 0 1 2 13.057V6.933c0-1.494 0-2.24.291-2.81.256-.503.663-.91 1.165-1.166.57-.29 1.317-.291 2.81-.291zM6 8a.667.667 0 0 0 0 1.333h2l.135-.014a.667.667 0 0 0 0-1.305L8 8zm0-2.667a.667.667 0 0 0 0 1.334h4l.135-.014a.667.667 0 0 0 0-1.306L10 5.333z"/></svg>