<svg xmlns="http://www.w3.org/2000/svg" fill="none" viewBox="0 0 20 20"><path fill="#74a1fb" d="M8.216 3.06a2.964 2.964 0 0 1 3.866 0c.48.414 1.08.662 1.711.71a2.964 2.964 0 0 1 2.734 2.733c.047.632.296 1.232.709 1.712a2.964 2.964 0 0 1 0 3.866 2.96 2.96 0 0 0-.71 1.711 2.964 2.964 0 0 1-2.733 2.734 2.96 2.96 0 0 0-1.71.709 2.964 2.964 0 0 1-3.867 0 2.97 2.97 0 0 0-1.712-.71 2.964 2.964 0 0 1-2.733-2.733 2.96 2.96 0 0 0-.71-1.71 2.964 2.964 0 0 1 0-3.867c.414-.48.662-1.08.71-1.712A2.964 2.964 0 0 1 6.504 3.77a2.97 2.97 0 0 0 1.712-.71m5.763 4.29a.82.82 0 0 0-1.158.061L9.41 11.2 7.393 9.518a.82.82 0 0 0-1.051 1.26l2.464 2.052a1.04 1.04 0 0 0 1.437-.102l3.796-4.219a.82.82 0 0 0-.06-1.158"/></svg>