<svg xmlns="http://www.w3.org/2000/svg" fill="none" viewBox="0 0 24 24"><path stroke="#94a3b8" stroke-width="2.25" d="M15.9 4.125c2.766 0 4.982 2.187 5.075 4.988V9.3c0 1.504-.582 2.796-1.536 3.67l-.364.335v.06q-.211.18-.498.43a437 437 0 0 0-1.92 1.686c-1.473 1.298-3.182 2.808-4.277 3.754a.534.534 0 0 1-.66 0 1159 1159 0 0 1-6.695-5.84v-.061l-.33-.33c-1-1-1.57-2.319-1.57-3.704v-.184C3.216 6.436 5.51 4.225 8.2 4.225c.372 0 .889.132 1.416.416.495.266.92.626 1.2 1.017.532 1.074 2.096 1.055 2.592-.055.225-.4.633-.775 1.14-1.058.527-.294 1.04-.42 1.352-.42Z"/></svg>