<svg xmlns="http://www.w3.org/2000/svg" fill="none" viewBox="0 0 18 18"><g fill="#64748b" clip-path="url(#a)"><path d="M9.75 2.25a2.25 2.25 0 0 1 2.246 2.118L12 4.5v3h1.5a2.25 2.25 0 0 1 2.235 1.988l.011.13.004.132-.015.147-.755 3.774c-.285 1.22-1.126 2.097-2.107 2.085l-.123-.006h-6a.75.75 0 0 1-.745-.662L6 15V7.848a.75.75 0 0 1 .376-.649 2.25 2.25 0 0 0 1.119-1.797L7.5 5.25V4.5a2.25 2.25 0 0 1 2.25-2.25m-6 5.25a.75.75 0 0 1 .745.662l.005.088V15a.75.75 0 0 1-.662.745l-.088.005H3a1.5 1.5 0 0 1-1.496-1.387L1.5 14.25V9a1.5 1.5 0 0 1 1.388-1.496L3 7.5z"/></g><defs><clipPath id="a"><path fill="#fff" d="M0 0h18v18H0z"/></clipPath></defs></svg>